<?xml version="1.0" encoding="UTF-8" standalone="no"?>
<!-- Created with Inkscape (http://www.inkscape.org/) -->

<svg
   xmlns:dc="http://purl.org/dc/elements/1.1/"
   xmlns:cc="http://creativecommons.org/ns#"
   xmlns:rdf="http://www.w3.org/1999/02/22-rdf-syntax-ns#"
   xmlns:svg="http://www.w3.org/2000/svg"
   xmlns="http://www.w3.org/2000/svg"
   xmlns:sodipodi="http://sodipodi.sourceforge.net/DTD/sodipodi-0.dtd"
   xmlns:inkscape="http://www.inkscape.org/namespaces/inkscape"
   version="1.1"
   id="svg2"
   xml:space="preserve"
   width="640"
   height="640"
   viewBox="0 0 640 640"
   sodipodi:docname="the-deep-logo-simplified.svg"
   inkscape:version="0.92.2 (5c3e80d, 2017-08-06)"><metadata
     id="metadata8"><rdf:RDF><cc:Work
         rdf:about=""><dc:format>image/svg+xml</dc:format><dc:type
           rdf:resource="http://purl.org/dc/dcmitype/StillImage" /><dc:title></dc:title></cc:Work></rdf:RDF></metadata><defs
     id="defs6"><clipPath
       clipPathUnits="userSpaceOnUse"
       id="clipPath18"><path
         d="M 0,480 H 480 V 0 H 0 Z"
         id="path16"
         inkscape:connector-curvature="0" /></clipPath></defs><sodipodi:namedview
     pagecolor="#ffffff"
     bordercolor="#666666"
     borderopacity="1"
     objecttolerance="10"
     gridtolerance="10"
     guidetolerance="10"
     inkscape:pageopacity="0"
     inkscape:pageshadow="2"
     inkscape:window-width="1920"
     inkscape:window-height="1080"
     id="namedview4"
     showgrid="false"
     inkscape:zoom="0.7375"
     inkscape:cx="81.104254"
     inkscape:cy="275.231"
     inkscape:window-x="0"
     inkscape:window-y="0"
     inkscape:window-maximized="0"
     inkscape:current-layer="g10" /><g
     id="g10"
     inkscape:groupmode="layer"
     inkscape:label="NEW DEEP LOGO"
     transform="matrix(1.3333333,0,0,-1.3333333,0,640)"><path
       inkscape:connector-curvature="0"
       id="path22"
       style="fill-opacity:1;fill-rule:nonzero;"
       d="m 249.0507,473.5688 c 4.768,0.121 9.459,-0.643 14.112,-1.485 26.474,-4.79 49.291,-16.67 68.177,-35.838 18.207,-18.479 29.712,-40.566 34.072,-66.149 4.717,-27.679 0.416,-54.054 -12.522,-78.997 -0.346,-0.668 -0.689,-1.34 -1.083,-1.98 -2.987,-4.855 -9.243,-6.526 -14.228,-3.811 -5.004,2.726 -6.993,8.863 -4.306,14.008 3.211,6.15 5.979,12.461 8.064,19.082 11.313,35.929 1.651,75.945 -24.804,102.775 -15.107,15.32 -33.105,25.577 -54.231,29.567 -35.393,6.685 -66.733,-2.099 -93.264,-26.571 -16.725,-15.428 -27.038,-34.668 -31.001,-57.086 -4.004,-22.645 -0.702,-44.329 9.643,-64.905 0.506,-1.008 1.063,-1.991 1.55,-3.007 2.462,-5.14 0.577,-11.12 -4.343,-13.829 -4.992,-2.747 -11.271,-1.137 -14.234,3.735 -1.052,1.731 -1.932,3.571 -2.824,5.394 -6.171,12.607 -10.223,25.864 -11.703,39.827 -4.21,39.73 7.706,74.033 35.581,102.524 18.231,18.632 40.511,30.145 66.174,34.98 5.175,0.975 10.37,1.829 15.664,1.777 1.235,0.133 2.555,-0.476 3.703,0.42 h 9.035 c 0.817,-0.822 1.839,-0.328 2.768,-0.431" /><path
       inkscape:connector-curvature="0"
       id="path26"
       style="fill-opacity:1;fill-rule:nonzero;"
       d="m 11.3157,146.2012 c 2.598,18.75 16.728,33.072 35.442,35.85 2.301,0.342 4.629,0.545 6.974,0.519 0.992,-0.011 1.489,-0.223 1.654,-1.301 0.375,-2.453 0.826,-4.886 0.865,-7.384 0.037,-2.348 -0.952,-4.032 -2.929,-5.214 -2.139,-1.279 -4.447,-2.193 -6.727,-3.166 -3.774,-1.61 -7.239,-3.706 -10.128,-6.637 -8.032,-8.15 -10.363,-17.84 -6.968,-28.657 3.356,-10.691 10.77,-17.266 21.898,-19.03 10.534,-1.67 19.693,1.213 26.691,9.605 3.408,4.087 5.327,8.914 5.969,14.16 0.99,8.081 1.171,16.194 0.653,24.333 -0.556,8.738 -0.401,17.456 1.739,26.021 3.198,12.799 10.511,22.638 21.536,29.784 2.907,1.885 5.951,3.521 9.084,4.996 0.593,0.28 1.303,0.382 1.779,1.061 -0.483,0.469 -1.115,0.63 -1.688,0.892 -6.542,2.996 -12.596,6.719 -17.772,11.785 -7.229,7.076 -11.466,15.716 -13.484,25.537 -1.851,9.006 -1.65,18.095 -1.148,27.204 0.423,7.678 0.507,15.386 -1.173,22.92 -1.944,8.72 -6.652,15.586 -14.909,19.57 -14.248,6.875 -32.131,0.108 -38.196,-14.439 -2.942,-7.055 -3.626,-14.285 -0.906,-21.555 2.773,-7.415 8.161,-12.297 15.445,-15.184 1.606,-0.636 3.246,-1.192 4.826,-1.887 1.026,-0.451 2.01,-1.029 2.947,-1.649 3.558,-2.355 5.043,-5.621 4.315,-9.881 -0.281,-1.642 -0.776,-3.206 -1.289,-4.78 -0.305,-0.936 -0.739,-1.342 -1.781,-1.212 -14.551,1.811 -27.147,7.234 -35.813,19.673 -3.972,5.702 -6.375,12.066 -6.908,19.061 -0.508,0.975 -0.338,3.351 -0.849,4.611 v 5.041 c 1.312,7.503 3.042,14.858 7.413,21.299 7.992,11.776 19.109,18.451 33.162,20.325 24.604,3.281 45.732,-13.541 50.279,-37.157 1.201,-6.24 1.273,-12.565 1.38,-18.885 0.107,-6.252 -0.178,-12.487 -0.647,-18.723 -0.966,-12.835 3.639,-23.251 13.811,-31.168 4.236,-3.296 8.842,-5.974 13.779,-8.078 6.215,-2.649 9.68,-8.064 9.212,-14.584 -0.336,-4.673 -2.578,-8.307 -6.523,-10.769 -3.378,-2.109 -6.852,-4.067 -10.459,-5.781 -1.694,-0.805 -3.37,-1.678 -4.958,-2.673 -8.637,-5.412 -13.156,-13.364 -14.313,-23.376 -0.703,-6.087 -0.197,-12.181 -0.147,-18.271 0.084,-10.32 -0.041,-20.635 -1.736,-30.84 -1.664,-10.014 -6.756,-18.08 -14.658,-24.378 -14.273,-11.374 -35.342,-13.611 -51.26,-5.19 -13.348,7.062 -20.906,18.401 -23.448,33.189 -0.175,1.02 -0.482,10.392 -0.036,14.413" /><path
       inkscape:connector-curvature="0"
       id="path30"
       style="fill-opacity:1;fill-rule:nonzero;"
       d="m 143.3527,98.969 c 0,-4.325 -0.012,-8.452 0.011,-12.579 0.004,-0.801 -0.57,-0.974 -1.101,-1.225 -2.037,-0.964 -4.099,-1.881 -6.115,-2.888 -2.83,-1.413 -5.529,-3.043 -8.095,-4.905 -4.961,-3.602 -8.187,-8.309 -9.445,-14.35 -1.323,-6.353 -1.482,-12.673 0.225,-18.994 1.193,-4.415 3.668,-7.858 7.471,-10.374 5.779,-3.825 12.146,-5.887 19.047,-6.295 4.228,-0.25 7.999,1.044 11.387,3.555 3.976,2.947 7.049,6.724 10.121,10.555 4.363,5.44 6.034,11.494 5.811,18.451 -0.934,29.124 -0.225,58.26 -0.383,87.391 -0.085,15.507 -0.025,31.016 0.067,46.524 0.025,4.199 -0.283,8.444 0.765,12.586 1.889,7.463 6.247,12.627 13.949,14.382 4.932,1.124 9.722,0.214 14.318,-1.775 5.391,-2.334 10.92,-4.259 16.621,-5.682 19.752,-4.93 38.944,-3.058 57.637,4.774 3.192,1.337 6.349,2.696 9.87,3.011 10.645,0.952 19.388,-5.658 21.34,-16.173 0.374,-2.014 0.459,-4.031 0.459,-6.066 -0.004,-33.2 -0.012,-66.4 0.002,-99.6 0.006,-14.002 0.032,-28.004 0.108,-42.006 0.029,-5.209 0.548,-10.358 2.468,-15.282 3.48,-8.931 10.077,-13.998 19.393,-15.644 4.869,-0.86 9.749,-0.745 14.568,0.428 6.589,1.604 11.835,5.18 15.345,11.017 3.993,6.64 5.948,13.782 4.556,21.581 -0.814,4.565 -2.929,8.509 -5.995,11.946 -3.46,3.877 -7.573,6.855 -12.427,8.764 -2.727,1.073 -5.457,2.139 -8.205,3.156 -0.973,0.36 -1.37,0.886 -1.348,1.979 0.074,3.612 0.015,7.227 0.033,10.84 0.009,1.619 0.039,1.697 1.596,1.64 17.176,-0.629 30.665,-7.767 38.976,-23.095 12.026,-22.182 3.399,-49.121 -19.217,-61.016 -7.551,-3.971 -15.557,-5.953 -24.115,-5.476 -17.181,0.956 -34.202,11.896 -39.977,28.726 -2.317,6.752 -3.23,13.765 -3.392,20.855 -0.24,10.533 -0.358,21.071 -0.392,31.607 -0.085,25.671 -0.086,51.343 -0.131,77.014 -0.019,10.464 -0.092,20.927 -0.071,31.391 0.004,2.107 -0.752,3.958 -1.415,5.981 -0.786,0.067 -1.403,-0.385 -2.063,-0.658 -9.692,-4.011 -19.672,-7.053 -30.06,-8.586 -16.807,-2.478 -33.297,-1.105 -49.43,4.316 -4.495,1.51 -8.882,3.274 -13.195,5.237 -0.6,0.273 -1.146,0.72 -2.079,0.684 -0.171,-2.347 -0.353,-4.704 -0.511,-7.062 -0.431,-6.463 -0.508,-12.933 -0.494,-19.409 0.045,-20.853 0.068,-41.707 0.04,-62.56 -0.023,-17.239 -0.066,-34.478 -0.235,-51.715 -0.054,-5.484 0.091,-10.988 -0.648,-16.453 -2.544,-18.813 -15.857,-33.274 -34.232,-37.955 -27.147,-6.916 -53.033,12.464 -56.947,38.014 -2.6,16.97 3.709,30.54 17.233,40.811 7.526,5.716 16.203,8.781 25.487,10.223 0.816,0.127 1.636,0.224 2.814,0.384" /><path
       inkscape:connector-curvature="0"
       id="path34"
       style="fill-opacity:1;fill-rule:nonzero;"
       d="m 469.4821,142.4787 c 0.009,-2.173 0.018,-4.346 0.026,-6.518 -0.025,-9.825 -3.627,-18.383 -9.657,-25.904 -8.498,-10.6 -19.755,-15.94 -33.284,-16.425 -11.684,-0.418 -22.327,2.731 -31.608,9.937 -9.002,6.989 -14.062,16.219 -15.433,27.563 -1.476,12.22 -1.391,24.472 -1.135,36.738 0.105,4.974 0.021,9.933 -1.277,14.786 -2.469,9.238 -8.229,15.737 -16.719,19.887 -3.718,1.818 -7.33,3.819 -10.935,5.841 -5.423,3.042 -8.312,7.601 -7.839,13.866 0.45,5.954 3.804,9.902 9.212,12.315 6.923,3.088 13.277,7.067 18.509,12.64 7.25,7.72 9.952,16.984 9.072,27.392 -0.546,6.458 -0.83,12.92 -0.49,19.391 0.275,5.256 0.328,10.532 1.176,15.745 3.133,19.258 16.916,33.942 34.399,37.977 23.11,5.333 49.159,-7.81 55.301,-33.548 0.562,-2.358 0.78,-4.74 0.728,-7.155 -0.011,-2.344 -0.022,-4.687 -0.033,-7.031 -0.219,-12.351 -5.396,-22.346 -14.671,-30.259 -7.113,-6.07 -15.58,-9.229 -24.71,-10.771 -0.296,-0.05 -0.596,-0.081 -0.894,-0.122 -4.522,-0.625 -3.647,-1.043 -5.032,3.133 -0.258,0.781 -0.409,1.601 -0.563,2.413 -0.764,4.035 0.568,7.244 3.858,9.663 2.148,1.578 4.594,2.546 7.085,3.406 3.011,1.04 5.836,2.447 8.307,4.455 8.713,7.082 11.393,16.254 9.189,27.049 -0.543,2.66 -1.503,5.194 -2.723,7.624 -4.374,8.716 -11.574,13.388 -21.108,14.639 -4.13,0.542 -8.264,0.538 -12.302,-0.687 -9.618,-2.919 -15.292,-9.658 -18.299,-18.966 -1.264,-3.913 -1.485,-7.979 -1.676,-12.031 -0.238,-5.036 -0.167,-10.068 0.125,-15.113 0.546,-9.41 0.417,-18.788 -1.957,-28.023 -3.053,-11.879 -9.609,-21.261 -19.667,-28.234 -3.347,-2.32 -6.893,-4.28 -10.592,-5.977 -0.658,-0.302 -1.4,-0.463 -1.963,-1.013 0.426,-0.748 1.236,-0.828 1.889,-1.137 6.573,-3.111 12.664,-6.927 17.841,-12.094 7.152,-7.135 11.38,-15.788 13.285,-25.64 1.468,-7.589 1.553,-15.234 1.089,-22.927 -0.504,-8.349 -0.432,-16.707 0.74,-25.007 1.942,-13.748 13.214,-23.366 27.113,-23.643 13.298,-0.265 25.357,8.228 28.157,22.46 2.206,11.212 -1.317,20.455 -10.062,27.728 -2.325,1.934 -4.958,3.389 -7.745,4.57 -2.144,0.909 -4.283,1.826 -6.347,2.916 -2.661,1.405 -3.715,3.627 -3.42,6.528 0.198,1.944 0.497,3.879 0.796,5.81 0.278,1.796 0.304,1.82 2.103,1.814 19.408,-0.065 34.925,-11.947 40.363,-29 1.149,-3.6 2.005,-7.242 1.778,-11.061" /><path
       style="fill-opacity:1;fill-rule:nonzero;stroke-width:1.33333325"
       d="M 224.75391 258.51172 C 201.08857 258.51172 181.9043 277.69538 181.9043 301.35938 C 181.9043 325.02471 201.08857 344.20898 224.75391 344.20898 C 244.33941 344.20898 260.84447 331.06425 265.95703 313.11914 L 373.99414 313.11914 C 377.91764 332.73768 395.23297 347.52148 416.00586 347.52148 C 439.67119 347.52148 458.85547 328.33721 458.85547 304.67188 C 458.85547 281.00788 439.67119 261.82422 416.00586 261.82422 C 394.90493 261.82422 377.37931 277.08006 373.82617 297.16016 L 267.39648 297.16016 C 265.28578 275.4675 247.00189 258.51172 224.75391 258.51172 z M 224.75391 278.92773 C 237.14191 278.92773 247.18555 288.97138 247.18555 301.35938 C 247.18555 313.74737 237.14191 323.78906 224.75391 323.78906 C 212.36591 323.78906 202.32422 313.74737 202.32422 301.35938 C 202.32422 288.97138 212.36591 278.92773 224.75391 278.92773 z M 416.00586 282.24023 C 428.39386 282.24023 438.43555 292.28388 438.43555 304.67188 C 438.43555 317.05987 428.39386 327.10156 416.00586 327.10156 C 403.61786 327.10156 393.57422 317.05987 393.57422 304.67188 C 393.57422 292.28388 403.61786 282.24023 416.00586 282.24023 z "
       transform="matrix(0.75000002,0,0,-0.75000002,0,480.00001)"
       id="path36" /></g></svg>