<?xml version="1.0" encoding="UTF-8" standalone="no"?>
<!-- Created with Inkscape (http://www.inkscape.org/) -->

<svg
   xmlns:dc="http://purl.org/dc/elements/1.1/"
   xmlns:cc="http://creativecommons.org/ns#"
   xmlns:rdf="http://www.w3.org/1999/02/22-rdf-syntax-ns#"
   xmlns:svg="http://www.w3.org/2000/svg"
   xmlns="http://www.w3.org/2000/svg"
   xmlns:sodipodi="http://sodipodi.sourceforge.net/DTD/sodipodi-0.dtd"
   xmlns:inkscape="http://www.inkscape.org/namespaces/inkscape"
   version="1.1"
   id="svg2"
   xml:space="preserve"
   width="640"
   height="640"
   viewBox="0 0 640 640"
   sodipodi:docname="deep-logo.svg"
   inkscape:version="0.92.2 (5c3e80d, 2017-08-06)"><metadata
     id="metadata8"><rdf:RDF><cc:Work
         rdf:about=""><dc:format>image/svg+xml</dc:format><dc:type
           rdf:resource="http://purl.org/dc/dcmitype/StillImage" /><dc:title></dc:title></cc:Work></rdf:RDF></metadata><defs
     id="defs6"><clipPath
       clipPathUnits="userSpaceOnUse"
       id="clipPath18"><path
         d="M 0,480 H 480 V 0 H 0 Z"
         id="path16"
         inkscape:connector-curvature="0" /></clipPath></defs><sodipodi:namedview
     pagecolor="#ffffff"
     bordercolor="#666666"
     borderopacity="1"
     objecttolerance="10"
     gridtolerance="10"
     guidetolerance="10"
     inkscape:pageopacity="0"
     inkscape:pageshadow="2"
     inkscape:window-width="1920"
     inkscape:window-height="1080"
     id="namedview4"
     showgrid="false"
     inkscape:zoom="0.7375"
     inkscape:cx="81.104254"
     inkscape:cy="275.231"
     inkscape:window-x="0"
     inkscape:window-y="0"
     inkscape:window-maximized="0"
     inkscape:current-layer="g10" /><g
     id="g10"
     inkscape:groupmode="layer"
     inkscape:label="NEW DEEP LOGO"
     transform="matrix(1.3333333,0,0,-1.3333333,0,640)"><path
       inkscape:connector-curvature="0"
       id="path22"
       style="fill-opacity:1;fill-rule:nonzero;"
       d="m 249.0507,473.5688 c 4.768,0.121 9.459,-0.643 14.112,-1.485 26.474,-4.79 49.291,-16.67 68.177,-35.838 18.207,-18.479 29.712,-40.566 34.072,-66.149 4.717,-27.679 0.416,-54.054 -12.522,-78.997 -0.346,-0.668 -0.689,-1.34 -1.083,-1.98 -2.987,-4.855 -9.243,-6.526 -14.228,-3.811 -5.004,2.726 -6.993,8.863 -4.306,14.008 3.211,6.15 5.979,12.461 8.064,19.082 11.313,35.929 1.651,75.945 -24.804,102.775 -15.107,15.32 -33.105,25.577 -54.231,29.567 -35.393,6.685 -66.733,-2.099 -93.264,-26.571 -16.725,-15.428 -27.038,-34.668 -31.001,-57.086 -4.004,-22.645 -0.702,-44.329 9.643,-64.905 0.506,-1.008 1.063,-1.991 1.55,-3.007 2.462,-5.14 0.577,-11.12 -4.343,-13.829 -4.992,-2.747 -11.271,-1.137 -14.234,3.735 -1.052,1.731 -1.932,3.571 -2.824,5.394 -6.171,12.607 -10.223,25.864 -11.703,39.827 -4.21,39.73 7.706,74.033 35.581,102.524 18.231,18.632 40.511,30.145 66.174,34.98 5.175,0.975 10.37,1.829 15.664,1.777 1.235,0.133 2.555,-0.476 3.703,0.42 h 9.035 c 0.817,-0.822 1.839,-0.328 2.768,-0.431" /><path
       inkscape:connector-curvature="0"
       id="path26"
       style="fill-opacity:1;fill-rule:nonzero;"
       d="m 11.3157,146.2012 c 2.598,18.75 16.728,33.072 35.442,35.85 2.301,0.342 4.629,0.545 6.974,0.519 0.992,-0.011 1.489,-0.223 1.654,-1.301 0.375,-2.453 0.826,-4.886 0.865,-7.384 0.037,-2.348 -0.952,-4.032 -2.929,-5.214 -2.139,-1.279 -4.447,-2.193 -6.727,-3.166 -3.774,-1.61 -7.239,-3.706 -10.128,-6.637 -8.032,-8.15 -10.363,-17.84 -6.968,-28.657 3.356,-10.691 10.77,-17.266 21.898,-19.03 10.534,-1.67 19.693,1.213 26.691,9.605 3.408,4.087 5.327,8.914 5.969,14.16 0.99,8.081 1.171,16.194 0.653,24.333 -0.556,8.738 -0.401,17.456 1.739,26.021 3.198,12.799 10.511,22.638 21.536,29.784 2.907,1.885 5.951,3.521 9.084,4.996 0.593,0.28 1.303,0.382 1.779,1.061 -0.483,0.469 -1.115,0.63 -1.688,0.892 -6.542,2.996 -12.596,6.719 -17.772,11.785 -7.229,7.076 -11.466,15.716 -13.484,25.537 -1.851,9.006 -1.65,18.095 -1.148,27.204 0.423,7.678 0.507,15.386 -1.173,22.92 -1.944,8.72 -6.652,15.586 -14.909,19.57 -14.248,6.875 -32.131,0.108 -38.196,-14.439 -2.942,-7.055 -3.626,-14.285 -0.906,-21.555 2.773,-7.415 8.161,-12.297 15.445,-15.184 1.606,-0.636 3.246,-1.192 4.826,-1.887 1.026,-0.451 2.01,-1.029 2.947,-1.649 3.558,-2.355 5.043,-5.621 4.315,-9.881 -0.281,-1.642 -0.776,-3.206 -1.289,-4.78 -0.305,-0.936 -0.739,-1.342 -1.781,-1.212 -14.551,1.811 -27.147,7.234 -35.813,19.673 -3.972,5.702 -6.375,12.066 -6.908,19.061 -0.508,0.975 -0.338,3.351 -0.849,4.611 v 5.041 c 1.312,7.503 3.042,14.858 7.413,21.299 7.992,11.776 19.109,18.451 33.162,20.325 24.604,3.281 45.732,-13.541 50.279,-37.157 1.201,-6.24 1.273,-12.565 1.38,-18.885 0.107,-6.252 -0.178,-12.487 -0.647,-18.723 -0.966,-12.835 3.639,-23.251 13.811,-31.168 4.236,-3.296 8.842,-5.974 13.779,-8.078 6.215,-2.649 9.68,-8.064 9.212,-14.584 -0.336,-4.673 -2.578,-8.307 -6.523,-10.769 -3.378,-2.109 -6.852,-4.067 -10.459,-5.781 -1.694,-0.805 -3.37,-1.678 -4.958,-2.673 -8.637,-5.412 -13.156,-13.364 -14.313,-23.376 -0.703,-6.087 -0.197,-12.181 -0.147,-18.271 0.084,-10.32 -0.041,-20.635 -1.736,-30.84 -1.664,-10.014 -6.756,-18.08 -14.658,-24.378 -14.273,-11.374 -35.342,-13.611 -51.26,-5.19 -13.348,7.062 -20.906,18.401 -23.448,33.189 -0.175,1.02 -0.482,10.392 -0.036,14.413" /><path
       inkscape:connector-curvature="0"
       id="path30"
       style="fill-opacity:1;fill-rule:nonzero;"
       d="m 143.3527,98.969 c 0,-4.325 -0.012,-8.452 0.011,-12.579 0.004,-0.801 -0.57,-0.974 -1.101,-1.225 -2.037,-0.964 -4.099,-1.881 -6.115,-2.888 -2.83,-1.413 -5.529,-3.043 -8.095,-4.905 -4.961,-3.602 -8.187,-8.309 -9.445,-14.35 -1.323,-6.353 -1.482,-12.673 0.225,-18.994 1.193,-4.415 3.668,-7.858 7.471,-10.374 5.779,-3.825 12.146,-5.887 19.047,-6.295 4.228,-0.25 7.999,1.044 11.387,3.555 3.976,2.947 7.049,6.724 10.121,10.555 4.363,5.44 6.034,11.494 5.811,18.451 -0.934,29.124 -0.225,58.26 -0.383,87.391 -0.085,15.507 -0.025,31.016 0.067,46.524 0.025,4.199 -0.283,8.444 0.765,12.586 1.889,7.463 6.247,12.627 13.949,14.382 4.932,1.124 9.722,0.214 14.318,-1.775 5.391,-2.334 10.92,-4.259 16.621,-5.682 19.752,-4.93 38.944,-3.058 57.637,4.774 3.192,1.337 6.349,2.696 9.87,3.011 10.645,0.952 19.388,-5.658 21.34,-16.173 0.374,-2.014 0.459,-4.031 0.459,-6.066 -0.004,-33.2 -0.012,-66.4 0.002,-99.6 0.006,-14.002 0.032,-28.004 0.108,-42.006 0.029,-5.209 0.548,-10.358 2.468,-15.282 3.48,-8.931 10.077,-13.998 19.393,-15.644 4.869,-0.86 9.749,-0.745 14.568,0.428 6.589,1.604 11.835,5.18 15.345,11.017 3.993,6.64 5.948,13.782 4.556,21.581 -0.814,4.565 -2.929,8.509 -5.995,11.946 -3.46,3.877 -7.573,6.855 -12.427,8.764 -2.727,1.073 -5.457,2.139 -8.205,3.156 -0.973,0.36 -1.37,0.886 -1.348,1.979 0.074,3.612 0.015,7.227 0.033,10.84 0.009,1.619 0.039,1.697 1.596,1.64 17.176,-0.629 30.665,-7.767 38.976,-23.095 12.026,-22.182 3.399,-49.121 -19.217,-61.016 -7.551,-3.971 -15.557,-5.953 -24.115,-5.476 -17.181,0.956 -34.202,11.896 -39.977,28.726 -2.317,6.752 -3.23,13.765 -3.392,20.855 -0.24,10.533 -0.358,21.071 -0.392,31.607 -0.085,25.671 -0.086,51.343 -0.131,77.014 -0.019,10.464 -0.092,20.927 -0.071,31.391 0.004,2.107 -0.752,3.958 -1.415,5.981 -0.786,0.067 -1.403,-0.385 -2.063,-0.658 -9.692,-4.011 -19.672,-7.053 -30.06,-8.586 -16.807,-2.478 -33.297,-1.105 -49.43,4.316 -4.495,1.51 -8.882,3.274 -13.195,5.237 -0.6,0.273 -1.146,0.72 -2.079,0.684 -0.171,-2.347 -0.353,-4.704 -0.511,-7.062 -0.431,-6.463 -0.508,-12.933 -0.494,-19.409 0.045,-20.853 0.068,-41.707 0.04,-62.56 -0.023,-17.239 -0.066,-34.478 -0.235,-51.715 -0.054,-5.484 0.091,-10.988 -0.648,-16.453 -2.544,-18.813 -15.857,-33.274 -34.232,-37.955 -27.147,-6.916 -53.033,12.464 -56.947,38.014 -2.6,16.97 3.709,30.54 17.233,40.811 7.526,5.716 16.203,8.781 25.487,10.223 0.816,0.127 1.636,0.224 2.814,0.384" /><path
       inkscape:connector-curvature="0"
       id="path34"
       style="fill-opacity:1;fill-rule:nonzero;"
       d="m 469.4821,142.4787 c 0.009,-2.173 0.018,-4.346 0.026,-6.518 -0.025,-9.825 -3.627,-18.383 -9.657,-25.904 -8.498,-10.6 -19.755,-15.94 -33.284,-16.425 -11.684,-0.418 -22.327,2.731 -31.608,9.937 -9.002,6.989 -14.062,16.219 -15.433,27.563 -1.476,12.22 -1.391,24.472 -1.135,36.738 0.105,4.974 0.021,9.933 -1.277,14.786 -2.469,9.238 -8.229,15.737 -16.719,19.887 -3.718,1.818 -7.33,3.819 -10.935,5.841 -5.423,3.042 -8.312,7.601 -7.839,13.866 0.45,5.954 3.804,9.902 9.212,12.315 6.923,3.088 13.277,7.067 18.509,12.64 7.25,7.72 9.952,16.984 9.072,27.392 -0.546,6.458 -0.83,12.92 -0.49,19.391 0.275,5.256 0.328,10.532 1.176,15.745 3.133,19.258 16.916,33.942 34.399,37.977 23.11,5.333 49.159,-7.81 55.301,-33.548 0.562,-2.358 0.78,-4.74 0.728,-7.155 -0.011,-2.344 -0.022,-4.687 -0.033,-7.031 -0.219,-12.351 -5.396,-22.346 -14.671,-30.259 -7.113,-6.07 -15.58,-9.229 -24.71,-10.771 -0.296,-0.05 -0.596,-0.081 -0.894,-0.122 -4.522,-0.625 -3.647,-1.043 -5.032,3.133 -0.258,0.781 -0.409,1.601 -0.563,2.413 -0.764,4.035 0.568,7.244 3.858,9.663 2.148,1.578 4.594,2.546 7.085,3.406 3.011,1.04 5.836,2.447 8.307,4.455 8.713,7.082 11.393,16.254 9.189,27.049 -0.543,2.66 -1.503,5.194 -2.723,7.624 -4.374,8.716 -11.574,13.388 -21.108,14.639 -4.13,0.542 -8.264,0.538 -12.302,-0.687 -9.618,-2.919 -15.292,-9.658 -18.299,-18.966 -1.264,-3.913 -1.485,-7.979 -1.676,-12.031 -0.238,-5.036 -0.167,-10.068 0.125,-15.113 0.546,-9.41 0.417,-18.788 -1.957,-28.023 -3.053,-11.879 -9.609,-21.261 -19.667,-28.234 -3.347,-2.32 -6.893,-4.28 -10.592,-5.977 -0.658,-0.302 -1.4,-0.463 -1.963,-1.013 0.426,-0.748 1.236,-0.828 1.889,-1.137 6.573,-3.111 12.664,-6.927 17.841,-12.094 7.152,-7.135 11.38,-15.788 13.285,-25.64 1.468,-7.589 1.553,-15.234 1.089,-22.927 -0.504,-8.349 -0.432,-16.707 0.74,-25.007 1.942,-13.748 13.214,-23.366 27.113,-23.643 13.298,-0.265 25.357,8.228 28.157,22.46 2.206,11.212 -1.317,20.455 -10.062,27.728 -2.325,1.934 -4.958,3.389 -7.745,4.57 -2.144,0.909 -4.283,1.826 -6.347,2.916 -2.661,1.405 -3.715,3.627 -3.42,6.528 0.198,1.944 0.497,3.879 0.796,5.81 0.278,1.796 0.304,1.82 2.103,1.814 19.408,-0.065 34.925,-11.947 40.363,-29 1.149,-3.6 2.005,-7.242 1.778,-11.061" /><path
       style="fill-opacity:1;fill-rule:nonzero;stroke-width:1.33333325"
       d="M 224.75391 258.51172 C 201.08857 258.51172 181.9043 277.69538 181.9043 301.35938 C 181.9043 325.02471 201.08857 344.20898 224.75391 344.20898 C 244.33941 344.20898 260.84447 331.06425 265.95703 313.11914 L 373.99414 313.11914 C 377.91764 332.73768 395.23297 347.52148 416.00586 347.52148 C 439.67119 347.52148 458.85547 328.33721 458.85547 304.67188 C 458.85547 281.00788 439.67119 261.82422 416.00586 261.82422 C 394.90493 261.82422 377.37931 277.08006 373.82617 297.16016 L 267.39648 297.16016 C 265.28578 275.4675 247.00189 258.51172 224.75391 258.51172 z M 224.75391 278.92773 C 237.14191 278.92773 247.18555 288.97138 247.18555 301.35938 C 247.18555 313.74737 237.14191 323.78906 224.75391 323.78906 C 212.36591 323.78906 202.32422 313.74737 202.32422 301.35938 C 202.32422 288.97138 212.36591 278.92773 224.75391 278.92773 z M 416.00586 282.24023 C 428.39386 282.24023 438.43555 292.28388 438.43555 304.67188 C 438.43555 317.05987 428.39386 327.10156 416.00586 327.10156 C 403.61786 327.10156 393.57422 317.05987 393.57422 304.67188 C 393.57422 292.28388 403.61786 282.24023 416.00586 282.24023 z "
       transform="matrix(0.75000002,0,0,-0.75000002,0,480.00001)"
       id="path36" /><path
       inkscape:connector-curvature="0"
       id="path48"
       style="fill-opacity:1;fill-rule:nonzero;"
       d="m 168.4844,371.3103 c 4.649,-0.961 8.907,-4.133 11.389,-8.483 0.995,-1.744 1.633,-3.548 1.912,-5.3 5.008,0.223 9.217,2.119 11.241,5.156 1.712,2.57 1.748,5.785 0.103,9.297 l -0.994,2.121 2.314,0.369 c 4.366,0.698 9.766,3.943 10.846,7.662 1.615,5.567 0.584,10.909 -3.347,17.15 -1.03,-0.533 -2.129,-0.991 -3.303,-1.341 -5.439,-1.62 -11.288,-0.633 -17.411,2.929 -1.771,-3.106 -6.114,-9.304 -13.4,-11.227 -2.075,-0.548 -4.135,-0.796 -6.16,-0.796 -1.186,0 -2.36,0.091 -3.519,0.248 -7.483,-2.595 -7.572,-13.9 -5.518,-19.704 4.221,1.66 10.039,3.12 15.847,1.919" /><path
       inkscape:connector-curvature="0"
       id="path52"
       style="fill-opacity:1;fill-rule:nonzero;"
       d="m 166.9317,393.0551 c 7.978,2.107 11.952,10.936 11.992,11.026 l 0.839,1.902 1.744,-1.133 c 5.809,-3.79 11.229,-4.977 16.11,-3.532 7.273,2.154 11.453,9.582 12.455,11.561 -1.327,2.149 -2.359,4.772 -3.081,7.867 l 3.441,0.801 c 1.335,-5.724 3.77,-9.473 7.236,-11.142 5.004,-2.409 10.719,0.25 10.776,0.277 l 1.53,-3.182 c -0.2,-0.096 -3.476,-1.64 -7.609,-1.64 -1.952,0 -4.096,0.345 -6.198,1.35 -1.371,0.656 -2.61,1.538 -3.716,2.638 -1.303,-2.259 -3.78,-5.885 -7.514,-8.684 3.055,-4.821 6.157,-11.727 3.751,-20.015 -1.155,-3.98 -5.262,-7.267 -9.594,-9.007 7.224,-4.808 13.349,-6.418 18.223,-4.766 6.328,2.144 8.535,9.288 8.556,9.361 l 3.388,-1 c -0.107,-0.364 -2.711,-8.937 -10.773,-11.691 -1.615,-0.552 -3.319,-0.827 -5.108,-0.827 -4.659,0 -9.894,1.87 -15.646,5.589 0.396,-2.936 -0.188,-5.709 -1.767,-8.079 -1.783,-2.677 -4.648,-4.651 -8.183,-5.753 6.422,-0.549 13.893,-3.475 17.629,-13.132 2.015,5.025 6.058,9.195 11.278,11.403 6.15,2.601 13.024,2.21 19.443,-0.982 v 71.736 c 0,10.942 -5.065,19.413 -15.426,19.413 -10.362,0 -16.72,-8.706 -18.134,-12.941 -12.481,5.411 -24.727,-6.353 -24.727,-14.824 -10.78,1.077 -20.961,-10.668 -19.712,-22.953 2.879,-0.463 5.836,-0.423 8.797,0.359" /><path
       inkscape:connector-curvature="0"
       id="path56"
       style="fill-opacity:1;fill-rule:nonzero;"
       d="m 218.0671,349.9969 c -5.617,-2.376 -9.6,-7.459 -10.393,-13.268 l -0.303,-2.219 -2.087,0.812 c -4.74,1.843 -10.484,1.037 -13.708,-0.714 -5.441,-2.952 -9.331,-10.029 -5.805,-18.955 6.389,1.608 12.623,-0.947 17.444,-7.059 0.017,0.013 0.033,0.028 0.05,0.042 5.872,4.553 13.62,4.195 21.255,-0.98 l -1.984,-2.92 c -6.286,4.261 -12.521,4.667 -17.106,1.111 -4.281,-3.319 -6.072,-9.384 -4.259,-14.422 l -3.324,-1.194 c -1.907,5.301 -0.692,11.481 2.842,15.861 -4.022,5.262 -9.145,7.479 -14.277,6.091 -5.23,-1.415 -9.221,-6.323 -9.489,-11.67 l -3.528,0.177 c 0.288,5.751 3.947,11.092 9.074,13.716 -4.082,10.452 0.419,19.503 7.42,23.303 2.96,1.607 7.741,2.667 12.54,1.974 -4.363,12.534 -15.688,12.593 -22.367,11.391 l -2.96,-0.534 0.976,2.844 c 0.733,2.135 0.257,5.012 -1.274,7.696 -1.987,3.483 -5.365,6.016 -9.035,6.774 -5.946,1.229 -12.118,-0.889 -15.89,-2.635 -6.571,-5.752 -9.415,-20.818 1.24,-29.336 -4.945,-8.942 5.888,-18.353 8.007,-19.766 0.236,-16.941 15.779,-26.588 24.963,-24.941 8.949,-17.177 50.044,-24.472 50.044,13.529 v 43.547 c -5.944,3.487 -12.401,4.141 -18.066,1.745" /><path
       inkscape:connector-curvature="0"
       id="path68"
       style="fill-opacity:1;fill-rule:nonzero;"
       d="m 327.7771,365.9058 c -1.297,-1.407 -2.865,-2.623 -4.733,-3.617 -3.055,-1.627 -6.279,-2.058 -9.125,-1.966 -2.409,0.033 -4.602,0.352 -6.567,0.957 -1.562,-5.443 -4.461,-9.362 -8.646,-11.658 -3.179,-1.744 -6.65,-2.298 -9.776,-2.298 -5.264,0 -9.551,1.568 -9.832,1.674 l 0.066,0.176 c -0.034,-0.027 -0.066,-0.057 -0.1,-0.085 -3.885,-3.154 -8.855,-4.741 -14.825,-4.741 -1.88,0 -3.857,0.158 -5.933,0.473 -6.008,0.912 -10.976,4.72 -14.437,8.284 v -37.342 c 1.041,-2.908 3,-6.678 6.58,-9.132 3.663,-2.512 8.394,-3.213 14.073,-2.099 -0.259,3.457 0.59,7.582 3.562,12.329 l 2.995,-1.873 c -8.016,-12.805 2.262,-19.724 2.703,-20.012 l -1.916,-2.966 c -0.082,0.053 -4.85,3.211 -6.686,9.052 -1.968,-0.385 -3.848,-0.58 -5.633,-0.58 -4.248,0 -7.971,1.087 -11.123,3.256 -1.869,1.286 -3.361,2.839 -4.555,4.458 v -3.085 c 0,-38.001 41.094,-30.706 50.043,-13.529 0.081,-0.014 0.166,-0.021 0.248,-0.034 1.71,2.957 3.311,6.989 3.083,11.519 -0.28,5.569 -3.251,10.842 -8.832,15.693 -2.435,-3.147 -6.235,-5.921 -12.149,-7.414 l -0.866,3.422 c 16.325,4.124 13.566,19.384 13.441,20.032 l 3.465,0.683 c 0.023,-0.116 1.315,-7.102 -1.993,-13.704 6.613,-5.607 10.137,-11.848 10.464,-18.57 0.217,-4.48 -1.021,-8.469 -2.578,-11.642 7.161,1.024 15.808,6.972 19.205,16.605 l -0.034,0.013 c 0.036,0.096 3.487,9.712 -0.916,17.917 -2.835,5.283 -8.332,8.928 -16.336,10.837 l 0.819,3.433 c 9.045,-2.156 15.318,-6.406 18.646,-12.633 1.5,-2.806 2.23,-5.702 2.512,-8.411 3.668,3.749 8.377,10.477 4.791,16.961 10.838,8.663 7.706,24.097 0.895,29.617" /><path
       inkscape:connector-curvature="0"
       id="path72"
       style="fill-opacity:1;fill-rule:nonzero;"
       d="m 281.6791,415.1124 c -2.519,-7.463 -8.665,-11.888 -12.059,-13.846 2.481,-4.914 2.948,-10.186 3.004,-12.915 3.528,0.187 7.719,-0.8 12.475,-4.045 l -1.993,-2.915 c -12.484,8.522 -19.817,-1.461 -20.124,-1.889 l -2.887,2.033 c 0.055,0.077 3.286,4.536 8.997,6.21 -0.017,3.01 -0.594,11.98 -6.602,17.086 -4.273,3.633 -10.532,4.676 -18.621,3.108 v -49.471 c 2.905,-3.634 8.307,-9.148 14.967,-10.158 7.625,-1.158 13.672,0.018 17.972,3.496 6.198,5.009 6.761,13.274 6.765,13.357 l 3.527,-0.199 c -0.019,-0.342 -0.469,-7.338 -5.261,-13.119 2.967,-0.8 9.771,-2.1 15.182,0.878 3.416,1.88 5.782,5.227 7.052,9.948 -1.413,0.789 -2.668,1.771 -3.752,2.953 -5.118,5.582 -4.496,13.419 -4.466,13.749 l 3.519,-0.303 c -0.006,-0.066 -0.5,-6.666 3.57,-11.082 0.751,-0.814 1.629,-1.495 2.604,-2.071 l 1.305,-0.568 c 0.077,-0.032 8.045,-3.398 14.53,0.053 3.407,1.815 5.549,4.36 6.548,7.781 0.309,1.06 0.488,2.157 0.57,3.265 0.138,5.607 -1.647,11.745 -7.271,13.253 3.264,11.62 -4.61,23.762 -14.429,26.037 2.01,-6.817 1.634,-12.587 -1.149,-17.188 -5.059,-8.36 -16.089,-9.54 -16.556,-9.586 l -0.351,3.513 c 0.098,0.01 9.767,1.071 13.895,7.918 2.411,4 1.869,8.323 0.343,15.709 -0.276,-0.011 0.277,0.028 0,0 -0.755,7.95 -11.002,18.121 -22.254,15.816 2.365,-6.008 2.693,-11.644 0.95,-16.808" /><path
       inkscape:connector-curvature="0"
       id="path76"
       style="fill-opacity:1;fill-rule:nonzero;"
       d="m 264.7972,407.5048 c 1.152,-0.982 2.132,-2.071 2.973,-3.217 2.908,1.679 8.423,5.58 10.571,11.98 1.762,5.25 0.944,11.196 -2.419,17.694 -2.71,4.38 -8.407,9.858 -16.628,9.858 -10.363,0 -15.425,-8.47 -15.425,-19.412 v -12.884 c 8.885,1.589 15.922,0.247 20.928,-4.019" /></g></svg>